<mxfile host="app.diagrams.net" modified="2023-06-12T10:03:09.152Z" agent="Mozilla/5.0 (Windows NT 10.0; Win64; x64) AppleWebKit/537.36 (KHTML, like Gecko) Chrome/114.0.0.0 Safari/537.36 Edg/114.0.1823.37" version="21.3.8" etag="FEGGSmE3P7n3jjiqooWg" type="github">
  <diagram name="Page-1" id="f-zbyAJfGM1SuX7Dz58G">
    <mxGraphModel>
      <root>
        <mxCell id="0" />
        <mxCell id="1" parent="0" />
      </root>
    </mxGraphModel>
  </diagram>
</mxfile>
